<?xml version="1.0" encoding="UTF-8" standalone="no"?>
<!DOCTYPE svg PUBLIC "-//W3C//DTD SVG 1.1//EN"
 "http://www.w3.org/Graphics/SVG/1.1/DTD/svg11.dtd">
<!-- Generated by graphviz version 14.0.0 (20250921.2048)
 -->
<!-- Title: G Pages: 1 -->
<svg width="1151pt" height="719pt"
 viewBox="0.00 0.00 1151.00 719.00" xmlns="http://www.w3.org/2000/svg" xmlns:xlink="http://www.w3.org/1999/xlink">
<g id="graph0" class="graph" transform="scale(1 1) rotate(0) translate(4 714.71)">
<title>G</title><style>.edge>path:hover{stroke-width:8}</style>
<polygon fill="white" stroke="none" points="-4,4 -4,-714.71 1147.24,-714.71 1147.24,4 -4,4"/>
<!-- app_py -->
<g id="node1" class="node">
<title>app_py</title><style>.edge>path:hover{stroke-width:8}</style>
<ellipse fill="#854747" stroke="black" cx="584.64" cy="-18" rx="27.21" ry="18"/>
<text xml:space="preserve" text-anchor="middle" x="584.64" y="-14.5" font-family="Helvetica,sans-Serif" font-size="10.00" fill="#ffffff">app.py</text>
</g>
<!-- flask -->
<g id="node2" class="node">
<title>flask</title><style>.edge>path:hover{stroke-width:8}</style>
<polygon fill="blue" stroke="black" points="272.64,-145 218.64,-145 218.64,-109 272.64,-109 272.64,-145"/>
<text xml:space="preserve" text-anchor="middle" x="245.64" y="-123.5" font-family="Helvetica,sans-Serif" font-size="10.00" fill="white">flask</text>
</g>
<!-- flask&#45;&gt;app_py -->
<g id="edge1" class="edge">
<title>flask&#45;&gt;app_py</title><style>.edge>path:hover{stroke-width:8}</style>
<path fill="none" stroke="black" d="M272.87,-123.02C352.39,-114.17 579.08,-87.69 584.64,-73"/>
<path fill="none" stroke="black" d="M584.64,-72C587.53,-64.37 588.42,-55.66 588.34,-47.55"/>
<polygon fill="blue" stroke="black" points="591.85,-47.55 587.76,-37.77 584.86,-47.97 591.85,-47.55"/>
</g>
<!-- flask_app -->
<g id="node3" class="node">
<title>flask_app</title><style>.edge>path:hover{stroke-width:8}</style>
<polygon fill="blue" stroke="black" points="237.52,-638.71 181.77,-638.71 181.77,-602.71 237.52,-602.71 237.52,-638.71"/>
<text xml:space="preserve" text-anchor="middle" x="209.64" y="-617.21" font-family="Helvetica,sans-Serif" font-size="10.00" fill="white">flask.app</text>
</g>
<!-- flask_app&#45;&gt;flask -->
<g id="edge2" class="edge">
<title>flask_app&#45;&gt;flask</title><style>.edge>path:hover{stroke-width:8}</style>
<path fill="none" stroke="black" d="M181.4,-605.12C127.88,-575.28 15.91,-501.5 3.64,-401.08"/>
</g>
<!-- flask_ctx -->
<g id="node6" class="node">
<title>flask_ctx</title><style>.edge>path:hover{stroke-width:8}</style>
<polygon fill="blue" stroke="black" points="348.64,-566.71 294.64,-566.71 294.64,-530.71 348.64,-530.71 348.64,-566.71"/>
<text xml:space="preserve" text-anchor="middle" x="321.64" y="-545.21" font-family="Helvetica,sans-Serif" font-size="10.00" fill="white">flask.ctx</text>
</g>
<!-- flask_app&#45;&gt;flask_ctx -->
<g id="edge3" class="edge">
<title>flask_app&#45;&gt;flask_ctx</title><style>.edge>path:hover{stroke-width:8}</style>
<path fill="none" stroke="black" d="M246.95,-596.39C259.19,-588.74 272.78,-580.24 284.98,-572.62"/>
<polygon fill="blue" stroke="black" points="245.52,-593.15 238.9,-601.42 249.23,-599.09 245.52,-593.15"/>
<polygon fill="blue" stroke="black" points="286.5,-575.79 293.13,-567.53 282.79,-569.86 286.5,-575.79"/>
</g>
<!-- flask_globals -->
<g id="node7" class="node">
<title>flask_globals</title><style>.edge>path:hover{stroke-width:8}</style>
<polygon fill="blue" stroke="black" points="289.02,-494.71 218.27,-494.71 218.27,-458.71 289.02,-458.71 289.02,-494.71"/>
<text xml:space="preserve" text-anchor="middle" x="253.64" y="-473.21" font-family="Helvetica,sans-Serif" font-size="10.00" fill="white">flask.globals</text>
</g>
<!-- flask_app&#45;&gt;flask_globals -->
<g id="edge4" class="edge">
<title>flask_app&#45;&gt;flask_globals</title><style>.edge>path:hover{stroke-width:8}</style>
<path fill="none" stroke="black" d="M218.44,-591.31C226.16,-566.41 237.31,-530.41 244.98,-505.65"/>
<polygon fill="blue" stroke="black" points="215.1,-590.26 215.48,-600.85 221.79,-592.33 215.1,-590.26"/>
<polygon fill="blue" stroke="black" points="248.27,-506.85 247.89,-496.26 241.59,-504.78 248.27,-506.85"/>
</g>
<!-- flask_templating -->
<g id="node11" class="node">
<title>flask_templating</title><style>.edge>path:hover{stroke-width:8}</style>
<polygon fill="blue" stroke="black" points="148.14,-230.11 87.14,-230.11 87.14,-194.11 148.14,-194.11 148.14,-230.11"/>
<text xml:space="preserve" text-anchor="middle" x="117.64" y="-214.61" font-family="Helvetica,sans-Serif" font-size="10.00" fill="white">flask.</text>
<text xml:space="preserve" text-anchor="middle" x="117.64" y="-202.61" font-family="Helvetica,sans-Serif" font-size="10.00" fill="white">templating</text>
</g>
<!-- flask_app&#45;&gt;flask_templating -->
<g id="edge5" class="edge">
<title>flask_app&#45;&gt;flask_templating</title><style>.edge>path:hover{stroke-width:8}</style>
<path fill="none" stroke="black" d="M196.97,-591.87C175.33,-542.62 132.08,-436.36 116.64,-341.45 111.11,-307.47 112.62,-267.75 114.69,-241.6"/>
<polygon fill="blue" stroke="black" points="193.74,-593.21 201,-600.92 200.13,-590.36 193.74,-593.21"/>
<polygon fill="blue" stroke="black" points="118.16,-242.05 115.55,-231.78 111.19,-241.44 118.16,-242.05"/>
</g>
<!-- flask_blueprints -->
<g id="node4" class="node">
<title>flask_blueprints</title><style>.edge>path:hover{stroke-width:8}</style>
<polygon fill="blue" stroke="black" points="274.64,-230.11 216.64,-230.11 216.64,-194.11 274.64,-194.11 274.64,-230.11"/>
<text xml:space="preserve" text-anchor="middle" x="245.64" y="-214.61" font-family="Helvetica,sans-Serif" font-size="10.00" fill="white">flask.</text>
<text xml:space="preserve" text-anchor="middle" x="245.64" y="-202.61" font-family="Helvetica,sans-Serif" font-size="10.00" fill="white">blueprints</text>
</g>
<!-- flask_blueprints&#45;&gt;flask -->
<g id="edge6" class="edge">
<title>flask_blueprints&#45;&gt;flask</title><style>.edge>path:hover{stroke-width:8}</style>
<path fill="none" stroke="black" d="M245.64,-193.89C245.64,-183.15 245.64,-169.07 245.64,-156.68"/>
<polygon fill="blue" stroke="black" points="249.14,-157 245.64,-147 242.14,-157 249.14,-157"/>
</g>
<!-- flask_config -->
<g id="node5" class="node">
<title>flask_config</title><style>.edge>path:hover{stroke-width:8}</style>
<ellipse fill="#a2b653" stroke="black" cx="427.64" cy="-212.11" rx="39.84" ry="18"/>
<text xml:space="preserve" text-anchor="middle" x="427.64" y="-208.61" font-family="Helvetica,sans-Serif" font-size="10.00" fill="#000000">flask.config</text>
</g>
<!-- flask_config&#45;&gt;flask -->
<g id="edge7" class="edge">
<title>flask_config&#45;&gt;flask</title><style>.edge>path:hover{stroke-width:8}</style>
<path fill="none" stroke="black" d="M404.03,-197.17C394.69,-191.86 383.79,-185.91 373.64,-181 343.9,-166.61 309.22,-152.4 283.46,-142.32"/>
<polygon fill="#a2b653" stroke="black" points="285.01,-139.17 274.42,-138.82 282.48,-145.7 285.01,-139.17"/>
</g>
<!-- flask_ctx&#45;&gt;flask -->
<g id="edge8" class="edge">
<title>flask_ctx&#45;&gt;flask</title><style>.edge>path:hover{stroke-width:8}</style>
<path fill="none" stroke="black" d="M329.7,-530.34C352.29,-479.05 411.23,-324.84 359.64,-213.11"/>
</g>
<!-- flask_ctx&#45;&gt;flask_globals -->
<g id="edge10" class="edge">
<title>flask_ctx&#45;&gt;flask_globals</title><style>.edge>path:hover{stroke-width:8}</style>
<path fill="none" stroke="black" d="M297.01,-522.35C290.89,-516.05 284.34,-509.31 278.23,-503.02"/>
<polygon fill="blue" stroke="black" points="294.3,-524.58 303.78,-529.32 299.32,-519.71 294.3,-524.58"/>
<polygon fill="blue" stroke="black" points="280.79,-500.63 271.31,-495.9 275.77,-505.51 280.79,-500.63"/>
</g>
<!-- flask_globals&#45;&gt;flask -->
<g id="edge11" class="edge">
<title>flask_globals&#45;&gt;flask</title><style>.edge>path:hover{stroke-width:8}</style>
<path fill="none" stroke="black" d="M245.64,-309.34C238.65,-260.13 180.21,-262.1 188.64,-213.11"/>
<path fill="none" stroke="black" d="M245.64,-399.08C243.11,-360.16 251.13,-349.95 245.64,-311.34"/>
</g>
<!-- flask_globals&#45;&gt;flask_blueprints -->
<g id="edge13" class="edge">
<title>flask_globals&#45;&gt;flask_blueprints</title><style>.edge>path:hover{stroke-width:8}</style>
<path fill="none" stroke="black" d="M245.64,-309.34C242.44,-286.84 242.64,-261.09 243.53,-241.89"/>
<polygon fill="blue" stroke="black" points="247.02,-242.29 244.08,-232.11 240.03,-241.9 247.02,-242.29"/>
</g>
<!-- flask_helpers -->
<g id="node8" class="node">
<title>flask_helpers</title><style>.edge>path:hover{stroke-width:8}</style>
<polygon fill="blue" stroke="black" points="217.39,-328.34 145.89,-328.34 145.89,-292.34 217.39,-292.34 217.39,-328.34"/>
<text xml:space="preserve" text-anchor="middle" x="181.64" y="-306.84" font-family="Helvetica,sans-Serif" font-size="10.00" fill="white">flask.helpers</text>
</g>
<!-- flask_globals&#45;&gt;flask_helpers -->
<g id="edge15" class="edge">
<title>flask_globals&#45;&gt;flask_helpers</title><style>.edge>path:hover{stroke-width:8}</style>
<path fill="none" stroke="black" d="M245.64,-399.08C244.04,-374.56 227.5,-352.28 211.63,-336.3"/>
<polygon fill="blue" stroke="black" points="214.23,-333.94 204.57,-329.58 209.4,-339.01 214.23,-333.94"/>
<path fill="none" stroke="black" d="M251.35,-458.25C249.47,-443.15 246.92,-420.71 245.64,-401.08"/>
</g>
<!-- flask_json -->
<g id="node9" class="node">
<title>flask_json</title><style>.edge>path:hover{stroke-width:8}</style>
<polygon fill="blue" stroke="black" points="331.64,-328.34 273.64,-328.34 273.64,-292.34 331.64,-292.34 331.64,-328.34"/>
<text xml:space="preserve" text-anchor="middle" x="302.64" y="-306.84" font-family="Helvetica,sans-Serif" font-size="10.00" fill="white">flask.json</text>
</g>
<!-- flask_globals&#45;&gt;flask_json -->
<g id="edge16" class="edge">
<title>flask_globals&#45;&gt;flask_json</title><style>.edge>path:hover{stroke-width:8}</style>
<path fill="none" stroke="black" d="M245.64,-399.08C244.09,-375.31 259.09,-352.87 274.08,-336.63"/>
<polygon fill="blue" stroke="black" points="276.27,-339.4 280.78,-329.81 271.28,-334.49 276.27,-339.4"/>
</g>
<!-- flask_globals&#45;&gt;flask_templating -->
<g id="edge17" class="edge">
<title>flask_globals&#45;&gt;flask_templating</title><style>.edge>path:hover{stroke-width:8}</style>
<path fill="none" stroke="black" d="M232.25,-458.24C205.12,-434.77 159.16,-390.31 136.64,-341.45 121.92,-309.52 118.09,-268.82 117.34,-241.91"/>
<polygon fill="blue" stroke="black" points="120.84,-242.06 117.2,-232.11 113.84,-242.16 120.84,-242.06"/>
</g>
<!-- flask_wrappers -->
<g id="node12" class="node">
<title>flask_wrappers</title><style>.edge>path:hover{stroke-width:8}</style>
<polygon fill="blue" stroke="black" points="353.52,-418.08 273.77,-418.08 273.77,-382.08 353.52,-382.08 353.52,-418.08"/>
<text xml:space="preserve" text-anchor="middle" x="313.64" y="-396.58" font-family="Helvetica,sans-Serif" font-size="10.00" fill="white">flask.wrappers</text>
</g>
<!-- flask_globals&#45;&gt;flask_wrappers -->
<g id="edge18" class="edge">
<title>flask_globals&#45;&gt;flask_wrappers</title><style>.edge>path:hover{stroke-width:8}</style>
<path fill="none" stroke="black" d="M274.76,-449.44C280.55,-442.24 286.82,-434.44 292.6,-427.25"/>
<polygon fill="blue" stroke="black" points="272.04,-447.23 268.51,-457.22 277.5,-451.62 272.04,-447.23"/>
<polygon fill="blue" stroke="black" points="295.11,-429.72 298.64,-419.73 289.65,-425.33 295.11,-429.72"/>
</g>
<!-- flask_helpers&#45;&gt;flask -->
<g id="edge19" class="edge">
<title>flask_helpers&#45;&gt;flask</title><style>.edge>path:hover{stroke-width:8}</style>
<path fill="none" stroke="black" d="M188.64,-211.11C192.39,-189.35 206.3,-168.84 219.44,-153.64"/>
<polygon fill="blue" stroke="black" points="221.84,-156.2 225.98,-146.45 216.66,-151.49 221.84,-156.2"/>
<path fill="none" stroke="black" d="M181.88,-292.18C182.38,-272.84 183.92,-240.51 188.64,-213.11"/>
</g>
<!-- flask_helpers&#45;&gt;flask_app -->
<g id="edge20" class="edge">
<title>flask_helpers&#45;&gt;flask_app</title><style>.edge>path:hover{stroke-width:8}</style>
<path fill="none" stroke="black" d="M183.21,-328.61C187.81,-379.25 201.29,-527.73 207.02,-590.82"/>
<polygon fill="blue" stroke="black" points="203.53,-591.09 207.92,-600.74 210.5,-590.46 203.53,-591.09"/>
</g>
<!-- flask_helpers&#45;&gt;flask_blueprints -->
<g id="edge21" class="edge">
<title>flask_helpers&#45;&gt;flask_blueprints</title><style>.edge>path:hover{stroke-width:8}</style>
<path fill="none" stroke="black" d="M193.08,-292.13C202.76,-277.58 216.79,-256.49 227.92,-239.76"/>
<polygon fill="blue" stroke="black" points="230.62,-242.02 233.24,-231.75 224.79,-238.14 230.62,-242.02"/>
</g>
<!-- flask_helpers&#45;&gt;flask_templating -->
<g id="edge22" class="edge">
<title>flask_helpers&#45;&gt;flask_templating</title><style>.edge>path:hover{stroke-width:8}</style>
<path fill="none" stroke="black" d="M170.2,-292.13C160.52,-277.58 146.49,-256.49 135.36,-239.76"/>
<polygon fill="blue" stroke="black" points="138.49,-238.14 130.04,-231.75 132.66,-242.02 138.49,-238.14"/>
</g>
<!-- flask_json&#45;&gt;flask -->
<g id="edge24" class="edge">
<title>flask_json&#45;&gt;flask</title><style>.edge>path:hover{stroke-width:8}</style>
<path fill="none" stroke="black" d="M359.64,-211.11C344.82,-179.02 310.47,-156.69 283.33,-143.32"/>
<polygon fill="blue" stroke="black" points="284.87,-140.18 274.33,-139.11 281.91,-146.52 284.87,-140.18"/>
<path fill="none" stroke="black" d="M325,-291.84C346.17,-273 372.91,-241.85 359.64,-213.11"/>
</g>
<!-- flask_signals -->
<g id="node10" class="node">
<title>flask_signals</title><style>.edge>path:hover{stroke-width:8}</style>
<ellipse fill="#c0e722" stroke="black" cx="209.64" cy="-692.71" rx="42.54" ry="18"/>
<text xml:space="preserve" text-anchor="middle" x="209.64" y="-689.21" font-family="Helvetica,sans-Serif" font-size="10.00" fill="#000000">flask.signals</text>
</g>
<!-- flask_signals&#45;&gt;flask -->
<g id="edge26" class="edge">
<title>flask_signals&#45;&gt;flask</title><style>.edge>path:hover{stroke-width:8}</style>
<path fill="none" stroke="black" d="M41.64,-547.71C39.55,-512.37 9.3,-512.65 3.64,-477.71"/>
<path fill="none" stroke="black" d="M3.64,-399.08C-6.21,-297.2 4.49,-252.59 77.64,-181 112.6,-146.78 169.46,-134.63 207.21,-130.33"/>
<polygon fill="#c0e722" stroke="black" points="207.15,-133.86 216.75,-129.39 206.46,-126.89 207.15,-133.86"/>
<path fill="none" stroke="black" d="M177.45,-680.67C129.84,-662.06 45.76,-619.47 41.64,-549.71"/>
<path fill="none" stroke="black" d="M3.64,-475.71C-1.66,-442.96 6.66,-434.11 3.64,-401.08"/>
</g>
<!-- flask_signals&#45;&gt;flask_app -->
<g id="edge27" class="edge">
<title>flask_signals&#45;&gt;flask_app</title><style>.edge>path:hover{stroke-width:8}</style>
<path fill="none" stroke="black" d="M209.64,-674.4C209.64,-667.11 209.64,-658.43 209.64,-650.24"/>
<polygon fill="#c0e722" stroke="black" points="213.14,-650.32 209.64,-640.32 206.14,-650.32 213.14,-650.32"/>
</g>
<!-- flask_signals&#45;&gt;flask_ctx -->
<g id="edge28" class="edge">
<title>flask_signals&#45;&gt;flask_ctx</title><style>.edge>path:hover{stroke-width:8}</style>
<path fill="none" stroke="black" d="M222.71,-675.14C241.97,-650.71 278.18,-604.81 301.04,-575.82"/>
<polygon fill="#c0e722" stroke="black" points="303.58,-578.26 307.02,-568.24 298.08,-573.92 303.58,-578.26"/>
</g>
<!-- flask_signals&#45;&gt;flask_helpers -->
<g id="edge29" class="edge">
<title>flask_signals&#45;&gt;flask_helpers</title><style>.edge>path:hover{stroke-width:8}</style>
<path fill="none" stroke="black" d="M41.64,-547.71C52.87,-461.12 119.63,-377.5 156.76,-336.88"/>
<polygon fill="#c0e722" stroke="black" points="159.14,-339.46 163.39,-329.75 154.02,-334.69 159.14,-339.46"/>
</g>
<!-- flask_signals&#45;&gt;flask_templating -->
<g id="edge30" class="edge">
<title>flask_signals&#45;&gt;flask_templating</title><style>.edge>path:hover{stroke-width:8}</style>
<path fill="none" stroke="black" d="M3.64,-475.71C0.61,-450.86 72.91,-302.57 103.89,-240.46"/>
<polygon fill="#c0e722" stroke="black" points="106.97,-242.11 108.32,-231.6 100.71,-238.98 106.97,-242.11"/>
</g>
<!-- flask_templating&#45;&gt;flask -->
<g id="edge31" class="edge">
<title>flask_templating&#45;&gt;flask</title><style>.edge>path:hover{stroke-width:8}</style>
<path fill="none" stroke="black" d="M144.47,-193.69C163.33,-181.44 188.78,-164.92 209.44,-151.51"/>
<polygon fill="blue" stroke="black" points="211.09,-154.61 217.57,-146.22 207.28,-148.73 211.09,-154.61"/>
</g>
<!-- flask_wrappers&#45;&gt;flask -->
<g id="edge33" class="edge">
<title>flask_wrappers&#45;&gt;flask</title><style>.edge>path:hover{stroke-width:8}</style>
<path fill="none" stroke="black" d="M359.64,-309.34C358.53,-266.59 377.57,-251.94 359.64,-213.11"/>
</g>
<!-- flask_wrappers&#45;&gt;flask_app -->
<g id="edge34" class="edge">
<title>flask_wrappers&#45;&gt;flask_app</title><style>.edge>path:hover{stroke-width:8}</style>
<path fill="none" stroke="black" d="M316.64,-477.71C314.65,-492.7 252.99,-567.97 224.19,-602.43"/>
<path fill="none" stroke="black" d="M316.01,-418.35C317.37,-430.68 318.65,-447.94 317.69,-464.46"/>
<polygon fill="blue" stroke="black" points="314.22,-463.92 316.78,-474.2 321.19,-464.57 314.22,-463.92"/>
</g>
<!-- flask_wrappers&#45;&gt;flask_blueprints -->
<g id="edge35" class="edge">
<title>flask_wrappers&#45;&gt;flask_blueprints</title><style>.edge>path:hover{stroke-width:8}</style>
<path fill="none" stroke="black" d="M359.64,-309.34C358.6,-269.51 317.64,-242.8 285.11,-227.82"/>
<polygon fill="blue" stroke="black" points="286.86,-224.77 276.3,-223.98 284.06,-231.18 286.86,-224.77"/>
<path fill="none" stroke="black" d="M329.53,-381.65C343.11,-364.87 360.34,-338.16 359.64,-311.34"/>
</g>
<!-- flask_wrappers&#45;&gt;flask_ctx -->
<g id="edge36" class="edge">
<title>flask_wrappers&#45;&gt;flask_ctx</title><style>.edge>path:hover{stroke-width:8}</style>
<path fill="none" stroke="black" d="M316.64,-477.71C314.27,-495.58 316.31,-516.18 318.46,-530.39"/>
</g>
<!-- flask_wrappers&#45;&gt;flask_helpers -->
<g id="edge38" class="edge">
<title>flask_wrappers&#45;&gt;flask_helpers</title><style>.edge>path:hover{stroke-width:8}</style>
<path fill="none" stroke="black" d="M278.13,-375.48C259.22,-362.91 236.03,-347.49 217.12,-334.92"/>
<polygon fill="blue" stroke="black" points="276.04,-378.28 286.3,-380.91 279.91,-372.46 276.04,-378.28"/>
<polygon fill="blue" stroke="black" points="219.19,-332.1 208.93,-329.47 215.32,-337.93 219.19,-332.1"/>
</g>
<!-- flask_wrappers&#45;&gt;flask_json -->
<g id="edge39" class="edge">
<title>flask_wrappers&#45;&gt;flask_json</title><style>.edge>path:hover{stroke-width:8}</style>
<path fill="none" stroke="black" d="M310.04,-370.38C308.81,-360.58 307.44,-349.62 306.21,-339.84"/>
<polygon fill="blue" stroke="black" points="306.56,-370.75 311.28,-380.24 313.51,-369.88 306.56,-370.75"/>
<polygon fill="blue" stroke="black" points="309.71,-339.63 305,-330.14 302.77,-340.5 309.71,-339.63"/>
</g>
<!-- module_5 -->
<g id="node13" class="node">
<title>module_5</title><style>.edge>path:hover{stroke-width:8}</style>
<ellipse fill="#53b67b" stroke="black" cx="450.64" cy="-127" rx="34.88" ry="18"/>
<text xml:space="preserve" text-anchor="middle" x="450.64" y="-123.5" font-family="Helvetica,sans-Serif" font-size="10.00" fill="#000000">module_5</text>
</g>
<!-- module_5&#45;&gt;app_py -->
<g id="edge40" class="edge">
<title>module_5&#45;&gt;app_py</title><style>.edge>path:hover{stroke-width:8}</style>
<path fill="none" stroke="black" d="M478.02,-115.32C517.14,-100.03 584.39,-73.66 584.64,-73"/>
</g>
<!-- module_5_src -->
<g id="node14" class="node">
<title>module_5_src</title><style>.edge>path:hover{stroke-width:8}</style>
<ellipse fill="#53b67b" stroke="black" cx="548.64" cy="-127" rx="44.8" ry="18"/>
<text xml:space="preserve" text-anchor="middle" x="548.64" y="-123.5" font-family="Helvetica,sans-Serif" font-size="10.00" fill="#000000">module_5.src</text>
</g>
<!-- module_5_src&#45;&gt;app_py -->
<g id="edge41" class="edge">
<title>module_5_src&#45;&gt;app_py</title><style>.edge>path:hover{stroke-width:8}</style>
<path fill="none" stroke="black" d="M562.86,-109.49C570.6,-99.56 579.6,-86.31 584.64,-73"/>
</g>
<!-- module_5_src_query_helpers -->
<g id="node15" class="node">
<title>module_5_src_query_helpers</title><style>.edge>path:hover{stroke-width:8}</style>
<ellipse fill="#46a46c" stroke="black" cx="539.64" cy="-212.11" rx="54.27" ry="31.11"/>
<text xml:space="preserve" text-anchor="middle" x="539.64" y="-220.61" font-family="Helvetica,sans-Serif" font-size="10.00" fill="#000000">module_5.</text>
<text xml:space="preserve" text-anchor="middle" x="539.64" y="-208.61" font-family="Helvetica,sans-Serif" font-size="10.00" fill="#000000">src.</text>
<text xml:space="preserve" text-anchor="middle" x="539.64" y="-196.61" font-family="Helvetica,sans-Serif" font-size="10.00" fill="#000000">query_helpers</text>
</g>
<!-- module_5_src_query_helpers&#45;&gt;app_py -->
<g id="edge42" class="edge">
<title>module_5_src_query_helpers&#45;&gt;app_py</title><style>.edge>path:hover{stroke-width:8}</style>
<path fill="none" stroke="black" d="M579.62,-190.61C601.42,-176.27 623.63,-154.89 621.64,-128"/>
<path fill="none" stroke="black" d="M621.64,-126C619.52,-97.35 574.47,-99.87 584.64,-73"/>
</g>
<!-- module_5_src_sql_utils -->
<g id="node16" class="node">
<title>module_5_src_sql_utils</title><style>.edge>path:hover{stroke-width:8}</style>
<ellipse fill="#3db86e" stroke="black" cx="615.64" cy="-310.34" rx="43.13" ry="31.11"/>
<text xml:space="preserve" text-anchor="middle" x="615.64" y="-318.84" font-family="Helvetica,sans-Serif" font-size="10.00" fill="#000000">module_5.</text>
<text xml:space="preserve" text-anchor="middle" x="615.64" y="-306.84" font-family="Helvetica,sans-Serif" font-size="10.00" fill="#000000">src.</text>
<text xml:space="preserve" text-anchor="middle" x="615.64" y="-294.84" font-family="Helvetica,sans-Serif" font-size="10.00" fill="#000000">sql_utils</text>
</g>
<!-- module_5_src_sql_utils&#45;&gt;app_py -->
<g id="edge43" class="edge">
<title>module_5_src_sql_utils&#45;&gt;app_py</title><style>.edge>path:hover{stroke-width:8}</style>
<path fill="none" stroke="black" d="M618.64,-278.82C621.71,-242.75 625.55,-180.93 621.64,-128"/>
</g>
<!-- module_5_src_sql_utils&#45;&gt;module_5_src_query_helpers -->
<g id="edge44" class="edge">
<title>module_5_src_sql_utils&#45;&gt;module_5_src_query_helpers</title><style>.edge>path:hover{stroke-width:8}</style>
<path fill="none" stroke="black" d="M594.67,-282.79C586.64,-272.62 577.33,-260.83 568.67,-249.87"/>
<polygon fill="#3db86e" stroke="black" points="571.48,-247.78 562.54,-242.11 565.99,-252.12 571.48,-247.78"/>
</g>
<!-- psycopg -->
<g id="node17" class="node">
<title>psycopg</title><style>.edge>path:hover{stroke-width:8}</style>
<ellipse fill="#0667f9" stroke="black" cx="544.64" cy="-548.71" rx="31.72" ry="18"/>
<text xml:space="preserve" text-anchor="middle" x="544.64" y="-545.21" font-family="Helvetica,sans-Serif" font-size="10.00" fill="#ffffff">psycopg</text>
</g>
<!-- psycopg&#45;&gt;module_5_src_query_helpers -->
<g id="edge45" class="edge">
<title>psycopg&#45;&gt;module_5_src_query_helpers</title><style>.edge>path:hover{stroke-width:8}</style>
<path fill="none" stroke="black" d="M542,-530.36C540.43,-515.96 539.61,-495.1 544.64,-477.71"/>
</g>
<!-- psycopg&#45;&gt;module_5_src_sql_utils -->
<g id="edge46" class="edge">
<title>psycopg&#45;&gt;module_5_src_sql_utils</title><style>.edge>path:hover{stroke-width:8}</style>
<path fill="none" stroke="black" d="M576.69,-547.08C668.32,-544.62 928.77,-532.83 989.64,-477.71"/>
<path fill="none" stroke="black" d="M989.64,-475.71C1017.27,-450.68 951.48,-448.57 924.64,-422.71 915.43,-413.83 915.58,-409.14 905.64,-401.08"/>
<path fill="none" stroke="black" d="M905.64,-399.08C868.98,-369.32 741.11,-338.15 667.99,-322.18"/>
<polygon fill="#0667f9" stroke="black" points="669.18,-318.86 658.66,-320.17 667.7,-325.7 669.18,-318.86"/>
</g>
<!-- psycopg_pool_errors -->
<g id="node20" class="node">
<title>psycopg_pool_errors</title><style>.edge>path:hover{stroke-width:8}</style>
<ellipse fill="#bd19e6" stroke="black" cx="989.64" cy="-400.08" rx="55.86" ry="22.63"/>
<text xml:space="preserve" text-anchor="middle" x="989.64" y="-402.58" font-family="Helvetica,sans-Serif" font-size="10.00" fill="#ffffff">psycopg_pool.</text>
<text xml:space="preserve" text-anchor="middle" x="989.64" y="-390.58" font-family="Helvetica,sans-Serif" font-size="10.00" fill="#ffffff">errors</text>
</g>
<!-- psycopg&#45;&gt;psycopg_pool_errors -->
<g id="edge47" class="edge">
<title>psycopg&#45;&gt;psycopg_pool_errors</title><style>.edge>path:hover{stroke-width:8}</style>
<path fill="none" stroke="black" d="M989.64,-475.71C1000.97,-465.45 1001.86,-448.8 999.52,-433.83"/>
<polygon fill="#0667f9" stroke="black" points="1003.01,-433.4 997.54,-424.33 996.16,-434.83 1003.01,-433.4"/>
</g>
<!-- psycopg_pool_null_pool -->
<g id="node21" class="node">
<title>psycopg_pool_null_pool</title><style>.edge>path:hover{stroke-width:8}</style>
<ellipse fill="#9246a4" stroke="black" cx="1050.64" cy="-212.11" rx="55.86" ry="22.63"/>
<text xml:space="preserve" text-anchor="middle" x="1050.64" y="-214.61" font-family="Helvetica,sans-Serif" font-size="10.00" fill="#ffffff">psycopg_pool.</text>
<text xml:space="preserve" text-anchor="middle" x="1050.64" y="-202.61" font-family="Helvetica,sans-Serif" font-size="10.00" fill="#ffffff">null_pool</text>
</g>
<!-- psycopg&#45;&gt;psycopg_pool_null_pool -->
<g id="edge48" class="edge">
<title>psycopg&#45;&gt;psycopg_pool_null_pool</title><style>.edge>path:hover{stroke-width:8}</style>
<path fill="none" stroke="black" d="M1134.64,-399.08C1151.78,-347.94 1139.92,-327.38 1115.64,-279.23 1108.23,-264.54 1096.38,-251.04 1084.81,-240.12"/>
<polygon fill="#0667f9" stroke="black" points="1087.41,-237.75 1077.63,-233.66 1082.73,-242.96 1087.41,-237.75"/>
</g>
<!-- psycopg_pool_null_pool_async -->
<g id="node22" class="node">
<title>psycopg_pool_null_pool_async</title><style>.edge>path:hover{stroke-width:8}</style>
<ellipse fill="#9246a4" stroke="black" cx="748.64" cy="-212.11" rx="60.63" ry="22.63"/>
<text xml:space="preserve" text-anchor="middle" x="748.64" y="-214.61" font-family="Helvetica,sans-Serif" font-size="10.00" fill="#ffffff">psycopg_pool.</text>
<text xml:space="preserve" text-anchor="middle" x="748.64" y="-202.61" font-family="Helvetica,sans-Serif" font-size="10.00" fill="#ffffff">null_pool_async</text>
</g>
<!-- psycopg&#45;&gt;psycopg_pool_null_pool_async -->
<g id="edge49" class="edge">
<title>psycopg&#45;&gt;psycopg_pool_null_pool_async</title><style>.edge>path:hover{stroke-width:8}</style>
<path fill="none" stroke="black" d="M905.64,-399.08C863.76,-365.09 918.88,-322.46 886.64,-279.23 883.62,-275.17 835.3,-252.52 796.68,-234.84"/>
<polygon fill="#0667f9" stroke="black" points="798.52,-231.84 787.97,-230.87 795.62,-238.21 798.52,-231.84"/>
</g>
<!-- psycopg_pool_pool -->
<g id="node23" class="node">
<title>psycopg_pool_pool</title><style>.edge>path:hover{stroke-width:8}</style>
<ellipse fill="#9f3db8" stroke="black" cx="1050.64" cy="-310.34" rx="55.86" ry="22.63"/>
<text xml:space="preserve" text-anchor="middle" x="1050.64" y="-312.84" font-family="Helvetica,sans-Serif" font-size="10.00" fill="#ffffff">psycopg_pool.</text>
<text xml:space="preserve" text-anchor="middle" x="1050.64" y="-300.84" font-family="Helvetica,sans-Serif" font-size="10.00" fill="#ffffff">pool</text>
</g>
<!-- psycopg&#45;&gt;psycopg_pool_pool -->
<g id="edge50" class="edge">
<title>psycopg&#45;&gt;psycopg_pool_pool</title><style>.edge>path:hover{stroke-width:8}</style>
<path fill="none" stroke="black" d="M989.64,-475.71C1043.36,-427.05 1111.6,-469.8 1134.64,-401.08"/>
<path fill="none" stroke="black" d="M1134.64,-399.08C1143.61,-372.34 1120.27,-349.59 1095.95,-333.96"/>
<polygon fill="#0667f9" stroke="black" points="1097.95,-331.08 1087.58,-328.9 1094.33,-337.07 1097.95,-331.08"/>
</g>
<!-- psycopg_pool_pool_async -->
<g id="node24" class="node">
<title>psycopg_pool_pool_async</title><style>.edge>path:hover{stroke-width:8}</style>
<ellipse fill="#9f3db8" stroke="black" cx="821.64" cy="-310.34" rx="55.86" ry="22.63"/>
<text xml:space="preserve" text-anchor="middle" x="821.64" y="-312.84" font-family="Helvetica,sans-Serif" font-size="10.00" fill="#ffffff">psycopg_pool.</text>
<text xml:space="preserve" text-anchor="middle" x="821.64" y="-300.84" font-family="Helvetica,sans-Serif" font-size="10.00" fill="#ffffff">pool_async</text>
</g>
<!-- psycopg&#45;&gt;psycopg_pool_pool_async -->
<g id="edge51" class="edge">
<title>psycopg&#45;&gt;psycopg_pool_pool_async</title><style>.edge>path:hover{stroke-width:8}</style>
<path fill="none" stroke="black" d="M905.64,-399.08C883.97,-381.49 862.26,-358.64 846.33,-340.67"/>
<polygon fill="#0667f9" stroke="black" points="849.22,-338.65 840.01,-333.42 843.95,-343.25 849.22,-338.65"/>
</g>
<!-- psycopg_sql -->
<g id="node18" class="node">
<title>psycopg_sql</title><style>.edge>path:hover{stroke-width:8}</style>
<ellipse fill="#4778c2" stroke="black" cx="453.64" cy="-548.71" rx="41.19" ry="18"/>
<text xml:space="preserve" text-anchor="middle" x="453.64" y="-545.21" font-family="Helvetica,sans-Serif" font-size="10.00" fill="#ffffff">psycopg.sql</text>
</g>
<!-- psycopg_sql&#45;&gt;module_5_src_query_helpers -->
<g id="edge52" class="edge">
<title>psycopg_sql&#45;&gt;module_5_src_query_helpers</title><style>.edge>path:hover{stroke-width:8}</style>
<path fill="none" stroke="black" d="M483.72,-536.19C506.91,-525.27 536.38,-506.23 544.64,-477.71"/>
<path fill="none" stroke="black" d="M544.64,-475.71C566.51,-400.17 556.64,-307.24 547.88,-254.62"/>
<polygon fill="#4778c2" stroke="black" points="551.35,-254.15 546.18,-244.89 544.45,-255.35 551.35,-254.15"/>
</g>
<!-- psycopg_sql&#45;&gt;module_5_src_sql_utils -->
<g id="edge53" class="edge">
<title>psycopg_sql&#45;&gt;module_5_src_sql_utils</title><style>.edge>path:hover{stroke-width:8}</style>
<path fill="none" stroke="black" d="M483.18,-535.87C510.43,-524.43 548.19,-507.06 558.64,-494.71 592.85,-454.29 606.55,-393.44 612.02,-353.07"/>
<polygon fill="#4778c2" stroke="black" points="615.48,-353.61 613.23,-343.26 608.53,-352.76 615.48,-353.61"/>
</g>
<!-- psycopg_pool -->
<g id="node19" class="node">
<title>psycopg_pool</title><style>.edge>path:hover{stroke-width:8}</style>
<ellipse fill="#7e3d8f" stroke="black" cx="815.64" cy="-127" rx="45.7" ry="18"/>
<text xml:space="preserve" text-anchor="middle" x="815.64" y="-123.5" font-family="Helvetica,sans-Serif" font-size="10.00" fill="#ffffff">psycopg_pool</text>
</g>
<!-- psycopg_pool&#45;&gt;app_py -->
<g id="edge54" class="edge">
<title>psycopg_pool&#45;&gt;app_py</title><style>.edge>path:hover{stroke-width:8}</style>
<path fill="none" stroke="black" d="M769.94,-124.29C698.83,-120.52 571.1,-108.74 584.64,-73"/>
</g>
<!-- psycopg_pool_errors&#45;&gt;psycopg_pool -->
<g id="edge55" class="edge">
<title>psycopg_pool_errors&#45;&gt;psycopg_pool</title><style>.edge>path:hover{stroke-width:8}</style>
<path fill="none" stroke="black" d="M966.64,-309.34C947.47,-254.96 983.36,-226.27 947.64,-181 928.62,-156.89 896.92,-143.7 869.36,-136.5"/>
<polygon fill="#bd19e6" stroke="black" points="870.26,-133.12 859.72,-134.21 868.64,-139.93 870.26,-133.12"/>
</g>
<!-- psycopg_pool_errors&#45;&gt;psycopg_pool_null_pool -->
<g id="edge56" class="edge">
<title>psycopg_pool_errors&#45;&gt;psycopg_pool_null_pool</title><style>.edge>path:hover{stroke-width:8}</style>
<path fill="none" stroke="black" d="M966.64,-309.34C956.37,-280.19 982.18,-254.25 1007.83,-236.68"/>
<polygon fill="#bd19e6" stroke="black" points="1009.46,-239.79 1015.94,-231.41 1005.65,-233.92 1009.46,-239.79"/>
</g>
<!-- psycopg_pool_errors&#45;&gt;psycopg_pool_null_pool_async -->
<g id="edge57" class="edge">
<title>psycopg_pool_errors&#45;&gt;psycopg_pool_null_pool_async</title><style>.edge>path:hover{stroke-width:8}</style>
<path fill="none" stroke="black" d="M984.95,-377.14C980.86,-359.21 974.39,-333.32 966.64,-311.34"/>
<path fill="none" stroke="black" d="M966.64,-309.34C954.84,-275.87 835.26,-250.17 817.64,-243.23 810.78,-240.52 803.59,-237.55 796.55,-234.55"/>
<polygon fill="#bd19e6" stroke="black" points="798.35,-231.52 787.79,-230.77 795.58,-237.95 798.35,-231.52"/>
</g>
<!-- psycopg_pool_errors&#45;&gt;psycopg_pool_pool -->
<g id="edge58" class="edge">
<title>psycopg_pool_errors&#45;&gt;psycopg_pool_pool</title><style>.edge>path:hover{stroke-width:8}</style>
<path fill="none" stroke="black" d="M1004.41,-377.84C1011.97,-366.95 1021.32,-353.51 1029.63,-341.56"/>
<polygon fill="#bd19e6" stroke="black" points="1032.31,-343.83 1035.15,-333.62 1026.56,-339.84 1032.31,-343.83"/>
</g>
<!-- psycopg_pool_errors&#45;&gt;psycopg_pool_pool_async -->
<g id="edge59" class="edge">
<title>psycopg_pool_errors&#45;&gt;psycopg_pool_pool_async</title><style>.edge>path:hover{stroke-width:8}</style>
<path fill="none" stroke="black" d="M956.05,-381.53C929.95,-367.9 893.55,-348.9 865.22,-334.1"/>
<polygon fill="#bd19e6" stroke="black" points="867,-331.08 856.52,-329.55 863.76,-337.28 867,-331.08"/>
</g>
<!-- psycopg_pool_null_pool&#45;&gt;psycopg_pool -->
<g id="edge60" class="edge">
<title>psycopg_pool_null_pool&#45;&gt;psycopg_pool</title><style>.edge>path:hover{stroke-width:8}</style>
<path fill="none" stroke="black" d="M1014.22,-194.66C1003.49,-190.03 991.67,-185.13 980.64,-181 941.28,-166.25 895.74,-151.81 862.49,-141.74"/>
<polygon fill="#9246a4" stroke="black" points="863.74,-138.47 853.16,-138.94 861.72,-145.17 863.74,-138.47"/>
</g>
<!-- psycopg_pool_null_pool_async&#45;&gt;psycopg_pool -->
<g id="edge61" class="edge">
<title>psycopg_pool_null_pool_async&#45;&gt;psycopg_pool</title><style>.edge>path:hover{stroke-width:8}</style>
<path fill="none" stroke="black" d="M765.55,-190.14C774.54,-178.98 785.67,-165.18 795.15,-153.42"/>
<polygon fill="#9246a4" stroke="black" points="797.83,-155.67 801.38,-145.69 792.38,-151.28 797.83,-155.67"/>
</g>
<!-- psycopg_pool_pool&#45;&gt;psycopg_pool -->
<g id="edge62" class="edge">
<title>psycopg_pool_pool&#45;&gt;psycopg_pool</title><style>.edge>path:hover{stroke-width:8}</style>
<path fill="none" stroke="black" d="M1077.62,-290.31C1091.84,-278.56 1107.9,-262.14 1115.64,-243.23 1126.12,-217.63 1133.41,-202.19 1115.64,-181 1085.23,-144.74 950.74,-133.28 872.55,-129.66"/>
<polygon fill="#9f3db8" stroke="black" points="873.09,-126.18 862.95,-129.25 872.79,-133.17 873.09,-126.18"/>
</g>
<!-- psycopg_pool_pool&#45;&gt;psycopg_pool_null_pool -->
<g id="edge63" class="edge">
<title>psycopg_pool_pool&#45;&gt;psycopg_pool_null_pool</title><style>.edge>path:hover{stroke-width:8}</style>
<path fill="none" stroke="black" d="M1050.64,-287.5C1050.64,-275.41 1050.64,-260.12 1050.64,-246.55"/>
<polygon fill="#9f3db8" stroke="black" points="1054.14,-246.71 1050.64,-236.71 1047.14,-246.71 1054.14,-246.71"/>
</g>
<!-- psycopg_pool_pool_async&#45;&gt;psycopg_pool -->
<g id="edge64" class="edge">
<title>psycopg_pool_pool_async&#45;&gt;psycopg_pool</title><style>.edge>path:hover{stroke-width:8}</style>
<path fill="none" stroke="black" d="M771.11,-300.32C738.65,-291.63 698.9,-274.91 678.64,-243.23 663.74,-219.93 663.01,-203.81 678.64,-181 696.99,-154.23 730.94,-140.98 760.46,-134.42"/>
<polygon fill="#9f3db8" stroke="black" points="760.9,-137.9 770.02,-132.52 759.53,-131.04 760.9,-137.9"/>
</g>
<!-- psycopg_pool_pool_async&#45;&gt;psycopg_pool_null_pool_async -->
<g id="edge65" class="edge">
<title>psycopg_pool_pool_async&#45;&gt;psycopg_pool_null_pool_async</title><style>.edge>path:hover{stroke-width:8}</style>
<path fill="none" stroke="black" d="M805.8,-288.46C795.73,-275.18 782.53,-257.79 771.35,-243.05"/>
<polygon fill="#9f3db8" stroke="black" points="774.45,-241.34 765.62,-235.49 768.87,-245.57 774.45,-241.34"/>
</g>
<!-- psycopg_pool_version -->
<g id="node25" class="node">
<title>psycopg_pool_version</title><style>.edge>path:hover{stroke-width:8}</style>
<ellipse fill="#a253b6" stroke="black" cx="882.64" cy="-212.11" rx="55.86" ry="22.63"/>
<text xml:space="preserve" text-anchor="middle" x="882.64" y="-214.61" font-family="Helvetica,sans-Serif" font-size="10.00" fill="#ffffff">psycopg_pool.</text>
<text xml:space="preserve" text-anchor="middle" x="882.64" y="-202.61" font-family="Helvetica,sans-Serif" font-size="10.00" fill="#ffffff">version</text>
</g>
<!-- psycopg_pool_version&#45;&gt;psycopg_pool -->
<g id="edge66" class="edge">
<title>psycopg_pool_version&#45;&gt;psycopg_pool</title><style>.edge>path:hover{stroke-width:8}</style>
<path fill="none" stroke="black" d="M865.73,-190.14C856.74,-178.98 845.61,-165.18 836.13,-153.42"/>
<polygon fill="#a253b6" stroke="black" points="838.9,-151.28 829.9,-145.69 833.45,-155.67 838.9,-151.28"/>
</g>
</g>
</svg>
